<svg xmlns="http://www.w3.org/2000/svg" width="625" height="246" viewBox="0 0 625 246">
  <defs>
    <style>
      .cls-1 {
        fill: #19191a;
      }

      .cls-1, .cls-2 {
        fill-rule: evenodd;
      }

      .cls-2 {
        fill: #49c9f5;
      }
    </style>
  </defs>
  <path id="Forget_Discounts" data-name="Forget Discounts" class="cls-1" d="M50,2.488a20.406,20.406,0,0,0-4.752-.828Q41.1,1.192,39.375,1.192q-0.432,0-7.2.612t-7.2.612a28.572,28.572,0,0,1-4.1-.144q-0.648,1.657-3.744,2.52l-5.184,1.3q-5.977,2.449-8.856,3.96a6.365,6.365,0,0,0-1.872,2.088,5.934,5.934,0,0,0-1.152,2.3q0,1.441,3.312,3.456,1.871,1.08,3.744,2.088A3.2,3.2,0,0,0,8.2,18.04,6.388,6.388,0,0,0,6.9,15.3a0.289,0.289,0,0,1-.072-0.216q0-.935,2.808-2.88a13.545,13.545,0,0,1,5.328-2.376l1.224-.36a0.835,0.835,0,0,1,.864,0v0.864q0,1.08-8.928,18.5a4.533,4.533,0,0,1-1.44,1.584,2.721,2.721,0,0,0-1.152,1.368,2.839,2.839,0,0,0,.108,1.692,3.328,3.328,0,0,1,.18,1.62Q3.159,42.952,1.5,46.84a2.714,2.714,0,0,0-.072,1.44q0.143,1.369.144,1.512a1.3,1.3,0,0,1-.432.756,1.366,1.366,0,0,0-.432.9A5.189,5.189,0,0,0,1.5,54.04a2.711,2.711,0,0,0,2.3,1.8,8.874,8.874,0,0,0,1.4-.18,8.8,8.8,0,0,1,1.332-.18,4.394,4.394,0,0,0,.36-1.944,3.315,3.315,0,0,0-.648-1.98,3.385,3.385,0,0,1-.648-1.116,15.988,15.988,0,0,1,1.44-6.552q1.007-2.231,2.016-4.464Q11.151,32.657,20.655,29.2q4.175-1.512,16.776-3.672a1.346,1.346,0,0,1,.4-0.756,1.423,1.423,0,0,0,.4-0.9,0.994,0.994,0,0,0-.432-0.828q-0.432-.324-0.864-0.612l-5.4.288a110.017,110.017,0,0,0-11.448,1.944,17.823,17.823,0,0,0-2.88,1.188,11.867,11.867,0,0,1-2.3.972q-0.721,0-.5-0.216A31.8,31.8,0,0,1,17.2,20.56q0.071-.143,3.384-7.344Q22.959,8.1,25.047,6.952A20.315,20.315,0,0,1,30.663,5.44a31.84,31.84,0,0,1,4.1-.432H43.7q0.359,0,2.088-.144t2.16-.216q2.663-.359,2.664-1.3h0A1.028,1.028,0,0,0,50,2.488ZM57.3,33.952q0-7.631-5.4-7.488a9.772,9.772,0,0,0-3.168,1.152,15.477,15.477,0,0,0-4.392,3.168,40.251,40.251,0,0,0-5.256,7.272q-3.24,5.616-3.24,8.784a16.06,16.06,0,0,0,1.3,6.768q1.728,3.815,5.256,3.816,3.6,0,7.992-4.752A23.624,23.624,0,0,0,55.5,44.464a35.044,35.044,0,0,0,1.8-10.512h0Zm-9.331,15.12q-2.793,3.817-4.654,3.672A2.663,2.663,0,0,1,41.028,50.8a8.356,8.356,0,0,1-.645-3.312q0.071-2.231,2.664-7.344,3.024-5.9,5.688-5.9c0.288,0,.432.1,0.432,0.288a0.287,0.287,0,0,0,.353.288q0.425,0,3.043-2.736,0.707,0.145.708,2.3a24.893,24.893,0,0,1-2.434,9.792h0a22.96,22.96,0,0,1-2.864,4.9h0Zm34.818-21.1a2.4,2.4,0,0,0-2.3-1.584,8.759,8.759,0,0,0-5.184,2.16q-2.16,1.873-4.248,3.744a6.625,6.625,0,0,1-.72-1.728,1.413,1.413,0,0,0-1.3-1.08,7.886,7.886,0,0,0-2.232,3.384,42.334,42.334,0,0,0-1.3,4.824q-2.089,6.769-3.6,11.376a35.08,35.08,0,0,0-.936,3.96,3.856,3.856,0,0,0,1.584,2.448A9.79,9.79,0,0,0,64.5,56.848a6.268,6.268,0,0,0,1.8-3.528q0.36-2.015.72-4.032a43.142,43.142,0,0,1,5.76-11.7Q76.6,32.08,78.831,32.08A1.314,1.314,0,0,1,80.2,33.664a9.592,9.592,0,0,1-.288,1.692,4.36,4.36,0,0,0-.144,1.836q0.071,0.793.144,1.584a3.1,3.1,0,0,0,.936,1.728,4.473,4.473,0,0,0,2.016-2.448,8.321,8.321,0,0,0,.72-3.168q0-4.968-.792-6.912h0Zm31.9-.72a2.592,2.592,0,0,0-1.08.4,2.641,2.641,0,0,1-1.008.4,3.245,3.245,0,0,1-.864-0.4,3.244,3.244,0,0,0-1.584-.4,5.336,5.336,0,0,0-.864.072q-2.882.434-9.5,5.415-6.912,5.2-9.288,8.88Q87.325,46.6,87.47,50.428q0.143,4.475,6.264,4.259,4.752-.218,14.544-9-1.3,5.761-2.664,11.52a76.142,76.142,0,0,1-4.608,12.384,26.566,26.566,0,0,1-9.288,10.656q-5.9,4.175-9.936,4.176-7.344-.216-10.08-2.592-2.447-2.017-3.528-7.992a8.332,8.332,0,0,1-.072-1.152A20.526,20.526,0,0,1,69.182,67a17.623,17.623,0,0,1,1.08-3.168L70.19,62.32q-2.808,1.512-4.464,6.264a19.889,19.889,0,0,0-1.368,7.776Q64.5,80.391,68.678,85q4.465,4.9,8.784,4.752,16.055-.575,24.552-13.3,5.758-8.7,9.72-27.328,0.648-3.164,1.4-6.472a25.567,25.567,0,0,1,2.412-6.4,12.469,12.469,0,0,0,1.584-3.525,3.586,3.586,0,0,0-.108-0.61,9.665,9.665,0,0,1-.18-1.116q-0.074-3.81-2.16-3.739h0ZM103.643,44.248q-6.29,5.545-9.758,5.616a1.368,1.368,0,0,1-1.049-.36,1.209,1.209,0,0,1-.542-0.936q-0.073-3.311,6.651-9,6.506-5.471,9.541-5.544l1.88,0.864h0Q109.931,38.7,103.643,44.248ZM143.2,28.984A4.571,4.571,0,0,0,140.03,27.4q-5.832,0-12.312,7.416t-6.336,13.176a10.336,10.336,0,0,0,2.376,6.552,8.606,8.606,0,0,0,6.912,3.168q2.446,0,7.488-2.772t6.264-4.5a1.87,1.87,0,0,0-1.8-.576q0,0.073-4.824,2.088a19.052,19.052,0,0,1-6.264,1.728,5.829,5.829,0,0,1-3.528-1.3,5.614,5.614,0,0,1-2.376-4.032q5.47-.359,12.312-6.192t6.84-9.936A4.626,4.626,0,0,0,143.2,28.984Zm-8.028,10.26a45.33,45.33,0,0,1-3.924,2.7,8.327,8.327,0,0,1-4.1,1.08,20.047,20.047,0,0,1,4.608-6.336q4.1-3.959,7.2-3.96a1.584,1.584,0,0,1,1.008.576A15.583,15.583,0,0,1,135.17,39.244Zm32.435-8.892a32.662,32.662,0,0,0-5.544.864l-0.432-.5a101.115,101.115,0,0,1,5.112-11.88q3.888-7.992,3.888-9.936a6.947,6.947,0,0,0-.576-2.52,7.284,7.284,0,0,1-.576-1.8h-1.3a1.5,1.5,0,0,1-.828.576,3.136,3.136,0,0,0-1.332,1.3q-3.1,8.929-5.112,13.536-1.08,3.024-2.16,6.12-2.16,5.9-2.88,5.9a2.705,2.705,0,0,0-.648.072,2.834,2.834,0,0,1-.684.072,3.782,3.782,0,0,0-1.584,1.368,4.206,4.206,0,0,0-1.188,1.872,13.321,13.321,0,0,0,.648,3.744,4.8,4.8,0,0,0,.576,1.08,2.643,2.643,0,0,1,.5,1.152,49.508,49.508,0,0,1-1.548,5.22q-1.549,4.789-1.548,5.148a8.2,8.2,0,0,0,1.008,3.168q1.3,2.519,2.592,2.52,1.224,0,2.664-5.184a32,32,0,0,0,1.224-5.472q-0.072-.359-0.18-1.332t-0.108-1.4a10.833,10.833,0,0,1,.792-3.2,8.963,8.963,0,0,0,.72-3.2,33.018,33.018,0,0,1,5.256-2.808,58.018,58.018,0,0,1,10.44-2.808,1.91,1.91,0,0,0,.864-1.224,1.259,1.259,0,0,0-.216-0.5,0.526,0.526,0,0,1-.072-0.576q-3.888.361-7.776,0.648h0ZM239.388,14.3q-1.152-3.959-6.552-8.856Q224.412-.1,218.292-0.1a19.761,19.761,0,0,0-12.384,4.032,22,22,0,0,1-.216,2.34q-0.216,1.693-.216,2.052,0,5.257,1.8,6.12,1.44-.432,2.088-2.808a23.62,23.62,0,0,1,1.3-4.032,3.929,3.929,0,0,1,2.88-2.3q1.728-.216,2.736-0.324t1.3-.108q0.36,0,4.212.828a18.416,18.416,0,0,1,7.452,3.636q8.063,6.264,8.064,14.9,0,7.992-9.216,14.976-4.392,3.313-15.984,9.144a20.106,20.106,0,0,1-3.456,1.152q-2.738.721-4.392,1.152H200.8a0.589,0.589,0,0,0-.144-0.432,0.828,0.828,0,0,1-.144-0.576q0-1.3,2.376-10.08,1.872-5.4,3.024-7.92A113.728,113.728,0,0,1,211.524,19.7q1.224-1.512,2.52-3.024,2.376-2.951,2.376-3.528,0-2.879-3.528-3.312-0.5.864-3.1,4.392a34.236,34.236,0,0,0-2.88,4.464q-4.25,9.288-5.976,13.464a65.174,65.174,0,0,0-3.024,7.92q-0.432,1.441-2.232,6.84a44.594,44.594,0,0,0-1.512,4.68,4.449,4.449,0,0,0,1.152,2.988,3.8,3.8,0,0,0,3.024,1.332,15.447,15.447,0,0,0,1.584-.144,15.077,15.077,0,0,1,1.584-.144q0.432,0,5.616-1.368,0.286,0,5.112-1.8,12.312-4.679,19.944-11.376,9.432-8.279,9.432-18a18.672,18.672,0,0,0-2.232-8.784h0Zm26.423-.792q-0.072,0-2.484.4a17.767,17.767,0,0,0-5.292,1.908q-1.368.793-2.808,1.584a1.17,1.17,0,0,0-.144.648,3.934,3.934,0,0,0,.972,2.34,2.717,2.717,0,0,0,2.124,1.26q0.864,0,4.32-2.592a25.3,25.3,0,0,0,4.608-4.1q-0.72-1.439-1.3-1.44h0ZM264.7,42.952a1.111,1.111,0,0,1-.18-0.36,52.71,52.71,0,0,0-6.408,4.608q-4.682,3.672-7.344,3.672-1.944,0-2.52-1.008a9.874,9.874,0,0,1-.072-1.224q0-3.024,2.52-7.56,3.888-7.055,4.248-7.848-1.152-2.735-3.456-2.736-1.584,0-4.9,7.776-3.24,7.489-3.24,10.152a7.877,7.877,0,0,0,1.872,4.752q1.872,2.447,4.1,2.448,0.36,0,1.692-.108t1.62-.108q1.512,0,6.876-4.9t5.364-6.912A1.208,1.208,0,0,0,264.7,42.952Zm19.188-17.928A5.233,5.233,0,0,0,279.2,22a5.7,5.7,0,0,0-4.968,2.916,11.53,11.53,0,0,0-2.016,6.588,12.394,12.394,0,0,0,.072,1.368q0,0.073,1.44,7.056a70.3,70.3,0,0,1,1.3,7.056,9.705,9.705,0,0,1-1.98,5.256q-1.836,2.521-4,2.52-2.089,0-2.088-1.656a9.862,9.862,0,0,1,1.224-3.816q0.718-1.439,1.44-2.88-1.01-.071-1.728-0.072-1.152.648-2.3,1.368a9,9,0,0,0-2.736,4.68,7.076,7.076,0,0,0-.288,1.944,4.594,4.594,0,0,0,1.656,3.744,6.453,6.453,0,0,0,4.248,1.368,9.923,9.923,0,0,0,7.7-3.456,11.137,11.137,0,0,0,2.808-6.264,39.264,39.264,0,0,0-1.008-9.792,64.111,64.111,0,0,1-1.224-7.488q0.287-2.735.36-2.952a2.335,2.335,0,0,1,2.736-1.656,1.354,1.354,0,0,1,1.152.576q0.864,2.521,1.44,2.88A13.188,13.188,0,0,0,284.1,32.3a3.04,3.04,0,0,1,.54-1.116,2.157,2.157,0,0,0,.468-1.044,8.037,8.037,0,0,0-1.224-5.112h0Zm26.783,2.592q-1.512-3.456-3.6-3.456a10.1,10.1,0,0,0-2.88.72,3.609,3.609,0,0,1-1.512,1.728q-5.112,2.592-9.5,9-4.68,6.7-4.68,12.384,0,4.681,2.448,7.272t7.056,2.592q3.024,0,8.136-3.312a10.839,10.839,0,0,0,2.232-2.376,6.932,6.932,0,0,0,1.08-1.656,0.4,0.4,0,0,0-.36-0.468q-0.36-.035-0.792-0.108a4.49,4.49,0,0,0-.792.5,1.063,1.063,0,0,1-.612.288,7.523,7.523,0,0,0-1.4.36,30.287,30.287,0,0,0-2.736,1.512,9.954,9.954,0,0,1-4.608.936,5.077,5.077,0,0,1-3.852-1.548,5.462,5.462,0,0,1-1.548-3.708q-0.072-4.752,4.824-11.052t8.352-6.516a2.291,2.291,0,0,1,.936,1.764,14.687,14.687,0,0,0,.36,1.62q1.224,1.153,3.744.5,0.864-2.663.864-2.736a11.079,11.079,0,0,0-1.152-4.248h0Zm28.007,6.336q0-7.631-5.4-7.488a9.777,9.777,0,0,0-3.168,1.152,15.487,15.487,0,0,0-4.392,3.168,40.285,40.285,0,0,0-5.256,7.272q-3.24,5.616-3.24,8.784a16.06,16.06,0,0,0,1.3,6.768q1.728,3.815,5.256,3.816,3.6,0,7.992-4.752a23.619,23.619,0,0,0,5.112-8.208,35.022,35.022,0,0,0,1.8-10.512h0Zm-9.33,15.12q-2.793,3.817-4.655,3.672A2.663,2.663,0,0,1,322.4,50.8a8.352,8.352,0,0,1-.645-3.312q0.072-2.231,2.664-7.344,3.024-5.9,5.688-5.9c0.288,0,.432.1,0.432,0.288a0.287,0.287,0,0,0,.354.288q0.424,0,3.043-2.736,0.706,0.145.707,2.3a24.9,24.9,0,0,1-2.434,9.792h0a22.992,22.992,0,0,1-2.864,4.9h0Zm47.346,0.072a25.845,25.845,0,0,0-4.968,2.232,11.946,11.946,0,0,1-5.112,1.728q-1.657,0-2.664-2.232a6.279,6.279,0,0,1-.72-2.88,28.63,28.63,0,0,1,2.484-8.532q2.268-5.363,2.268-4.86a2.383,2.383,0,0,0-.72-1.584q-1.226-1.512-1.512-1.872a4.915,4.915,0,0,0-2.808,2.16q-0.936,1.441-1.8,2.952-2.522,3.385-3.744,4.752-6.625,8.281-9.864,9.5a0.3,0.3,0,0,1-.144-0.432q0.36-3.527,3.96-10.44,3.526-6.7,3.528-6.552a6.614,6.614,0,0,0-.828-2.556q-0.828-1.691-1.62-1.692-1.512,0-5.472,9.072-3.888,8.785-3.888,11.232,0,6.193,4.9,6.192,2.014,0,5.472-3.384,2.808-3.024,5.616-5.976a7.707,7.707,0,0,0-.216,1.872A9.961,9.961,0,0,0,361.1,54.22a6.828,6.828,0,0,0,5.508,2.844q2.879,0,6.408-2.736a16.562,16.562,0,0,0,3.888-4.032Zm19.08,7.56q1.728,0,4.644-2.412a14.478,14.478,0,0,0,3.924-4.5,0.4,0.4,0,0,0-.144-0.54c-0.193-.119-0.36-0.227-0.5-0.324q-5.832,3.456-6.984,3.456-2.882,0-2.88-3.816,0-2.16,2.34-8.208t2.34-8.64q0-2.592-1.512-2.592a7.359,7.359,0,0,0-4.68,2.232,56.19,56.19,0,0,0-4.464,5.148,56.892,56.892,0,0,1-4.536,5.22,0.777,0.777,0,0,1-.216-0.576,21.787,21.787,0,0,1,1.44-4.608q1.3-3.6,1.08-4.968a8.378,8.378,0,0,1-1.08-.648,2.461,2.461,0,0,0-1.08-.432,4.019,4.019,0,0,0-1.728.5,2.165,2.165,0,0,0-1.224,1.224q-1.226,4.033-2.988,11.052T375.753,50.8a3.739,3.739,0,0,0,.9,1.368,2.406,2.406,0,0,0,1.692,1.08,3.618,3.618,0,0,0,1.26-.432,3.592,3.592,0,0,1,1.26-.432,44.7,44.7,0,0,1,5.184-7.2q2.014-2.376,5.4-5.9,0-.143-1.08,4A20.064,20.064,0,0,0,389.433,49q0.648,7.705,6.336,7.7h0ZM425,30.352a32.678,32.678,0,0,0-5.544.864l-0.432-.5a101.115,101.115,0,0,1,5.112-11.88q3.888-7.992,3.888-9.936a6.947,6.947,0,0,0-.576-2.52,7.331,7.331,0,0,1-.576-1.8h-1.3a1.5,1.5,0,0,1-.828.576,3.141,3.141,0,0,0-1.332,1.3q-3.1,8.929-5.112,13.536-1.08,3.024-2.16,6.12-2.16,5.9-2.88,5.9a2.717,2.717,0,0,0-.648.072,2.828,2.828,0,0,1-.684.072,3.782,3.782,0,0,0-1.584,1.368,4.206,4.206,0,0,0-1.188,1.872,13.321,13.321,0,0,0,.648,3.744,4.841,4.841,0,0,0,.576,1.08,2.63,2.63,0,0,1,.5,1.152,49.508,49.508,0,0,1-1.548,5.22q-1.548,4.789-1.548,5.148A8.218,8.218,0,0,0,408.8,54.9q1.3,2.519,2.592,2.52,1.224,0,2.664-5.184a32,32,0,0,0,1.224-5.472q-0.072-.359-0.18-1.332t-0.108-1.4a10.866,10.866,0,0,1,.792-3.2,8.941,8.941,0,0,0,.72-3.2,33.061,33.061,0,0,1,5.256-2.808,58.018,58.018,0,0,1,10.44-2.808,1.91,1.91,0,0,0,.864-1.224,1.259,1.259,0,0,0-.216-0.5,0.528,0.528,0,0,1-.072-0.576q-3.888.361-7.776,0.648h0Zm26.136-5.328A5.233,5.233,0,0,0,446.456,22a5.7,5.7,0,0,0-4.968,2.916,11.53,11.53,0,0,0-2.016,6.588,12.394,12.394,0,0,0,.072,1.368q0,0.073,1.44,7.056a69.6,69.6,0,0,1,1.3,7.056,9.7,9.7,0,0,1-1.98,5.256q-1.836,2.521-4,2.52-2.088,0-2.088-1.656a9.879,9.879,0,0,1,1.224-3.816l1.44-2.88q-1.008-.071-1.728-0.072-1.152.648-2.3,1.368a9,9,0,0,0-2.736,4.68,7.076,7.076,0,0,0-.288,1.944,4.6,4.6,0,0,0,1.656,3.744,6.453,6.453,0,0,0,4.248,1.368,9.922,9.922,0,0,0,7.7-3.456,11.123,11.123,0,0,0,2.808-6.264,39.215,39.215,0,0,0-1.008-9.792,64.111,64.111,0,0,1-1.224-7.488q0.288-2.735.36-2.952a2.336,2.336,0,0,1,2.736-1.656,1.354,1.354,0,0,1,1.152.576q0.864,2.521,1.44,2.88a13.265,13.265,0,0,0,1.656,1.008,3.073,3.073,0,0,1,.54-1.116,2.157,2.157,0,0,0,.468-1.044,8.031,8.031,0,0,0-1.224-5.112h0Z"/>
  <path id="Try_it_Free_" data-name="Try it Free!" class="cls-2" d="M259.556,114.838q-3.6.1-7.2,0.1-0.6,0-6.85.4t-6.85.4a6.2,6.2,0,0,1-3.25-1.3,15.709,15.709,0,0,0-1.75-1.2,8.964,8.964,0,0,0-2.9,1.1,18.294,18.294,0,0,1-3,1.5,86.828,86.828,0,0,1-10.1,1.1q-5.6.3-11.2,0.5-7.7.5-11,2-1.6.8-1.6,3.9-0.1,2.5,3,4.5,2.1,1.1,4.1,2.2a26.13,26.13,0,0,1,6.7,8.1l1.7,0.1a2.393,2.393,0,0,1,.3-0.793,2.832,2.832,0,0,0,.3-1.292q0-1.59-2.7-9.138a2.449,2.449,0,0,1,.4-1.291,39.418,39.418,0,0,0,6.5-1.29,32.827,32.827,0,0,1,7.8-.8c1.066,0.068,1.666.1,1.8,0.1a1.592,1.592,0,0,1,.8,1.7q-7.6,20.973-15.1,40.744a146.97,146.97,0,0,0-4,14.18q-1.8,7.689-1.9,8.887a5.882,5.882,0,0,0,1.1,3.4,4.513,4.513,0,0,0,3.9,2.2q3.6,0,4.3-9.3,0.4-6,.7-12,3.8-11.5,7.6-23.1,5.2-14.8,9.9-22,3.4-5.3,4.4-5.4,4.5-.6,8.9-1.1a90.4,90.4,0,0,1,9.8-.7q12.3,0.2,12.4-4.8,0-1.5-7-1.6h0Zm15.8,40a3.336,3.336,0,0,0-3.2-2.2q-3.3,0-7.2,3-3,2.6-5.9,5.2a9.216,9.216,0,0,1-1-2.4,1.962,1.962,0,0,0-1.8-1.5,10.956,10.956,0,0,0-3.1,4.7,58.833,58.833,0,0,0-1.8,6.7q-2.9,9.4-5,15.8a48.719,48.719,0,0,0-1.3,5.5q0,1.4,2.2,3.4a13.621,13.621,0,0,0,2.7,1.9,8.707,8.707,0,0,0,2.5-4.9q0.5-2.8,1-5.6a59.925,59.925,0,0,1,8-16.25q5.3-7.651,8.4-7.65,1.9,0,1.9,2.2a13.285,13.285,0,0,1-.4,2.35,6.064,6.064,0,0,0-.2,2.55q0.1,1.1.2,2.2a4.3,4.3,0,0,0,1.3,2.4,6.209,6.209,0,0,0,2.8-3.4,11.548,11.548,0,0,0,1-4.4q0-6.9-1.1-9.6h0Zm49.9-4.5q-1.2-2.8-2.5-2.8-5.1,0-10.8,10.3-2.5,5.4-5,10.7-5.6,5.3-8.25,7.65t-5.15,4.75a27.52,27.52,0,0,1-6,4.2q0.2-4.7,4.7-11.65t4.5-6.75a6.04,6.04,0,0,0-1-2.9q-1.2-2.1-2.7-2.1a5.46,5.46,0,0,0-2.6.5q-0.2,2-5.6,12.4-5.1,9.9-5.1,15.3,0,1.2,1.95,3.35t3.35,2.15q1.7,0,9.5-7.1t8-7.1q0.9,0,.6.2-4.608,20.2-11.521,33.8-12.219,24.2-29.85,24.2-9.515,0-13.923-7-3.507-5.5-3.506-14.6a37.158,37.158,0,0,1,.914-6.5,25.97,25.97,0,0,0,.811-6.1,19.091,19.091,0,0,0,5.075-8.9c-1.333,0-1.9-.035-1.7-0.1a14.357,14.357,0,0,0-2.2,2q-8.5,7.2-8.5,22.2a24.409,24.409,0,0,0,6.8,17.2,22.952,22.952,0,0,0,17.7,7.8,27.539,27.539,0,0,0,9.2-1.7q9.2-3.2,16.6-13.2,9.5-12.7,15.9-35.6,5.2-18.7,7.4-23.8,3.5-3.8,7-7.7,6.8-7.7,6.8-10a10.962,10.962,0,0,0-.9-3.1h0Zm63.7-15.6q-0.1,0-3.45.55a24.669,24.669,0,0,0-7.35,2.651q-1.9,1.1-3.9,2.2a1.618,1.618,0,0,0-.2.9,5.463,5.463,0,0,0,1.35,3.25,3.772,3.772,0,0,0,2.95,1.75q1.2,0,6-3.6a35.15,35.15,0,0,0,6.4-5.7q-1-2-1.8-2h0Zm-1.55,40.9a1.522,1.522,0,0,1-.25-0.5q-1.3.5-8.9,6.4-6.5,5.1-10.2,5.1-2.7,0-3.5-1.4a13.641,13.641,0,0,1-.1-1.7q0-4.2,3.5-10.5,5.4-9.8,5.9-10.9-1.6-3.8-4.8-3.8-2.2,0-6.8,10.8-4.5,10.4-4.5,14.1a10.935,10.935,0,0,0,2.6,6.6q2.6,3.4,5.7,3.4,0.5,0,2.35-.151t2.25-.149q2.1,0,9.55-6.8t7.45-9.6A1.684,1.684,0,0,0,387.4,175.637Zm22.85-17.5a45.277,45.277,0,0,0-7.7,1.2l-0.6-.7q1.1-3.9,7.1-16.5,5.4-11.1,5.4-13.8a9.653,9.653,0,0,0-.8-3.5,10.158,10.158,0,0,1-.8-2.5h-1.8a2.077,2.077,0,0,1-1.15.8,4.367,4.367,0,0,0-1.85,1.8q-4.3,12.4-7.1,18.8-1.5,4.2-3,8.5-3,8.2-4,8.2a3.743,3.743,0,0,0-.9.1,3.949,3.949,0,0,1-.95.1q-0.55,0-2.2,1.9t-1.65,2.6a18.5,18.5,0,0,0,.9,5.2,6.645,6.645,0,0,0,.8,1.5,3.666,3.666,0,0,1,.7,1.6,68.956,68.956,0,0,1-2.15,7.25q-2.151,6.651-2.15,7.15a11.408,11.408,0,0,0,1.4,4.4q1.8,3.5,3.6,3.5,1.7,0,3.7-7.2a44.474,44.474,0,0,0,1.7-7.6q-0.1-.5-0.25-1.851t-0.15-1.95a15.068,15.068,0,0,1,1.1-4.449,12.442,12.442,0,0,0,1-4.451,45.89,45.89,0,0,1,7.3-3.9,80.635,80.635,0,0,1,14.5-3.9,2.654,2.654,0,0,0,1.2-1.7,1.757,1.757,0,0,0-.3-0.7,0.732,0.732,0,0,1-.1-0.8q-5.4.5-10.8,0.9h0Zm108.348-38.7q-0.851-.5-6.6-1.151t-8.15-.65q-0.6,0-10,.85t-10,.851a39.5,39.5,0,0,1-5.7-.2q-0.9,2.3-5.2,3.5l-7.2,1.8q-8.3,3.4-12.3,5.5a8.835,8.835,0,0,0-2.6,2.9,8.256,8.256,0,0,0-1.6,3.2q0,2,4.6,4.8,2.6,1.5,5.2,2.9a4.44,4.44,0,0,0,1.5-2.7q0-1.1-1.8-3.8a0.4,0.4,0,0,1-.1-0.3q0-1.3,3.9-4a18.8,18.8,0,0,1,7.4-3.3l1.7-.5a1.16,1.16,0,0,1,1.2,0v1.2q0,1.5-12.4,25.7a6.276,6.276,0,0,1-2,2.2,3.783,3.783,0,0,0-1.6,1.9,3.944,3.944,0,0,0,.15,2.35,4.62,4.62,0,0,1,.25,2.25q-3.7,10.9-6,16.3a3.775,3.775,0,0,0-.1,2q0.2,1.9.2,2.1a1.81,1.81,0,0,1-.6,1.051,1.9,1.9,0,0,0-.6,1.25,7.206,7.206,0,0,0,1.1,3.6q1.3,2.5,3.2,2.5a12.393,12.393,0,0,0,1.95-.25,12.125,12.125,0,0,1,1.85-.25,6.105,6.105,0,0,0,.5-2.7,4.6,4.6,0,0,0-.9-2.749,4.7,4.7,0,0,1-.9-1.551,22.21,22.21,0,0,1,2-9.1l2.8-6.2q2.9-9.4,16.1-14.2,5.8-2.1,23.3-5.1a1.868,1.868,0,0,1,.55-1.05,1.978,1.978,0,0,0,.55-1.25,1.382,1.382,0,0,0-.6-1.151q-0.6-.448-1.2-0.849l-7.5.4a153.233,153.233,0,0,0-15.9,2.7,24.8,24.8,0,0,0-4,1.651,16.5,16.5,0,0,1-3.2,1.349q-1,0-.7-0.3a44.222,44.222,0,0,1,3.9-8.4q0.1-.2,4.7-10.2,3.3-7.1,6.2-8.7a28.256,28.256,0,0,1,7.8-2.1,44.181,44.181,0,0,1,5.7-.6h12.4q0.5,0,2.9-.2t3-.3q3.7-.5,3.7-1.8h0A1.426,1.426,0,0,0,518.6,119.438Zm11.851,35.4a3.336,3.336,0,0,0-3.2-2.2q-3.3,0-7.2,3-3,2.6-5.9,5.2a9.216,9.216,0,0,1-1-2.4,1.962,1.962,0,0,0-1.8-1.5,10.956,10.956,0,0,0-3.1,4.7,58.833,58.833,0,0,0-1.8,6.7q-2.9,9.4-5,15.8a48.719,48.719,0,0,0-1.3,5.5q0,1.4,2.2,3.4a13.621,13.621,0,0,0,2.7,1.9,8.707,8.707,0,0,0,2.5-4.9q0.5-2.8,1-5.6a59.925,59.925,0,0,1,8-16.25q5.3-7.651,8.4-7.65,1.9,0,1.9,2.2a13.285,13.285,0,0,1-.4,2.35,6.064,6.064,0,0,0-.2,2.55q0.1,1.1.2,2.2a4.3,4.3,0,0,0,1.3,2.4,6.209,6.209,0,0,0,2.8-3.4,11.548,11.548,0,0,0,1-4.4q0-6.9-1.1-9.6h0Zm35.4,1.4a6.347,6.347,0,0,0-4.4-2.2q-8.1,0-17.1,10.3t-8.8,18.3a14.36,14.36,0,0,0,3.3,9.1,11.955,11.955,0,0,0,9.6,4.4q3.4,0,10.4-3.851t8.7-6.25a2.6,2.6,0,0,0-2.5-.8q0,0.1-6.7,2.9-5.9,2.4-8.7,2.4a8.094,8.094,0,0,1-4.9-1.8,7.794,7.794,0,0,1-3.3-5.6q7.6-.5,17.1-8.6t9.5-13.8A6.425,6.425,0,0,0,565.852,156.237Zm-11.15,14.25a62.4,62.4,0,0,1-5.45,3.75,11.566,11.566,0,0,1-5.7,1.5q1.6-4,6.4-8.8,5.7-5.5,10-5.5a2.2,2.2,0,0,1,1.4.8A21.615,21.615,0,0,1,554.7,170.487Zm49.05-14.25a6.351,6.351,0,0,0-4.4-2.2q-8.1,0-17.1,10.3t-8.8,18.3a14.349,14.349,0,0,0,3.3,9.1,11.953,11.953,0,0,0,9.6,4.4q3.4,0,10.4-3.851t8.7-6.25a2.6,2.6,0,0,0-2.5-.8q0,0.1-6.7,2.9-5.9,2.4-8.7,2.4a8.091,8.091,0,0,1-4.9-1.8,7.794,7.794,0,0,1-3.3-5.6q7.6-.5,17.1-8.6t9.5-13.8A6.43,6.43,0,0,0,603.752,156.237Zm-11.15,14.25a62.724,62.724,0,0,1-5.45,3.75,11.566,11.566,0,0,1-5.7,1.5q1.6-4,6.4-8.8,5.7-5.5,10-5.5a2.2,2.2,0,0,1,1.4.8A21.633,21.633,0,0,1,592.6,170.487Zm27.449,21.451a5.3,5.3,0,0,0,5.1-5.3,4.838,4.838,0,0,0-1.6-3.75,5.122,5.122,0,0,0-3.5-1.449,5.225,5.225,0,0,0-3.6,1.449,4.828,4.828,0,0,0-1.6,3.75,4.979,4.979,0,0,0,1.6,3.8,5.127,5.127,0,0,0,3.6,1.5h0Zm-4.2-16.6h8.3v-58.4h-8.3v58.4Z"/>
</svg>
