<svg id="logo_full" xmlns="http://www.w3.org/2000/svg" width="185" height="47" viewBox="0 0 185 47">
  <defs>
    <style>
      .cls-1 {
        fill: #fff;
      }

      .cls-1, .cls-2, .cls-3 {
        fill-rule: evenodd;
      }

      .cls-2 {
        fill: #4ec8f4;
      }

      .cls-3 {
        fill: #231f20;
      }
    </style>
  </defs>
  <g id="logo_copy" data-name="logo copy">
    <path id="plus" class="cls-1" d="M126.069,25.546v8.786H122.8V12.7h3.709a16.773,16.773,0,0,1,4.116.378,5.525,5.525,0,0,1,2.472,1.429,6.152,6.152,0,0,1,1.868,4.6,5.924,5.924,0,0,1-2,4.708,7.9,7.9,0,0,1-5.38,1.738h-1.517Zm0-3.027h1.222q4.509,0,4.51-3.461,0-3.349-4.65-3.349h-1.082v6.811ZM142.263,12.7V31.264h6.378v3.069H138.99V12.7h3.273Zm12.26,0V25.719a7.147,7.147,0,0,0,.913,4.075,4.894,4.894,0,0,0,7.684,0,7.025,7.025,0,0,0,.913-4.075V12.7h3.273V26.625a7.786,7.786,0,0,1-2.135,5.633,8.273,8.273,0,0,1-11.786,0,7.781,7.781,0,0,1-2.135-5.633V12.7h3.273Zm29.915,3.209-2.655,1.569a4.558,4.558,0,0,0-1.418-1.682,3.779,3.779,0,0,0-4.074.323,2.387,2.387,0,0,0-.9,1.907q0,1.585,2.36,2.552l2.163,0.884a9.237,9.237,0,0,1,3.863,2.6A5.855,5.855,0,0,1,185,27.825a6.609,6.609,0,0,1-2,4.936,6.851,6.851,0,0,1-4.986,1.963,6.662,6.662,0,0,1-4.664-1.675,7.7,7.7,0,0,1-2.262-4.7l3.315-.729a5.612,5.612,0,0,0,.787,2.634,3.746,3.746,0,0,0,5.493.379,3.531,3.531,0,0,0,1.011-2.591,3.6,3.6,0,0,0-.176-1.155,2.927,2.927,0,0,0-.547-0.966,4.383,4.383,0,0,0-.963-0.826,9.311,9.311,0,0,0-1.4-.735l-2.093-.868q-4.453-1.877-4.454-5.489a5.2,5.2,0,0,1,1.869-4.075,6.762,6.762,0,0,1,4.65-1.652A6.5,6.5,0,0,1,184.438,15.905Z"/>
    <path id="_" data-name="+" class="cls-1" d="M89.272,22.131H87.3V20.156a1.105,1.105,0,0,0-2.21,0v1.975H83.108a1.1,1.1,0,1,0,0,2.207h1.977v1.975a1.105,1.105,0,0,0,2.21,0V24.338h1.977A1.1,1.1,0,1,0,89.272,22.131Z"/>
    <path id="you" class="cls-2" d="M63.492,24.98l-7.081-12.3h3.765l4.959,8.652,4.973-8.651h3.765l-7.109,12.3v9.352H63.492V24.98Zm40.77-12.3V25.713a7.155,7.155,0,0,0,.913,4.077,4.893,4.893,0,0,0,7.685,0,7.033,7.033,0,0,0,.913-4.077V12.682h3.274V26.62a7.789,7.789,0,0,1-2.136,5.637,8.271,8.271,0,0,1-11.787,0,7.788,7.788,0,0,1-2.135-5.637V12.682h3.273ZM74.69,23.409a10.592,10.592,0,0,1,3.358-7.852,11.062,11.062,0,0,1,8.036-3.281,10.857,10.857,0,0,1,7.952,3.309,10.808,10.808,0,0,1,3.33,7.95,10.637,10.637,0,0,1-3.344,7.922,11.479,11.479,0,0,1-15.651.365A10.629,10.629,0,0,1,74.69,23.409Zm3.3,0.035A8.042,8.042,0,0,0,91.718,29.3a7.953,7.953,0,0,0,2.346-5.8,7.915,7.915,0,0,0-2.318-5.8,8.106,8.106,0,0,0-11.422,0A7.793,7.793,0,0,0,77.992,23.444Z"/>
  </g>
  <g id="circle">
    <path id="black" class="cls-3" d="M45.726,23.185A22.232,22.232,0,1,1,23.493.946,22.236,22.236,0,0,1,45.726,23.185Z"/>
    <path id="blue" class="cls-2" d="M0,23.309A22.215,22.215,0,0,1,7,6.87,23.034,23.034,0,0,1,23.768,0,22.606,22.606,0,0,1,40.355,6.929,22.667,22.667,0,0,1,47.3,23.574a22.307,22.307,0,0,1-6.975,16.586A23.324,23.324,0,0,1,23.416,47,23.324,23.324,0,0,1,7.679,40.923Q0,34.2,0,23.309Zm6.887,0.073a16.373,16.373,0,0,0,5.041,12.348A16.17,16.17,0,0,0,23.5,40.57a16.278,16.278,0,0,0,12.015-4.928A16.683,16.683,0,0,0,40.414,23.5a16.6,16.6,0,0,0-4.835-12.143A15.958,15.958,0,0,0,23.68,6.43a16.113,16.113,0,0,0-11.927,4.927A16.345,16.345,0,0,0,6.887,23.383Z"/>
    <path id="_2" data-name="+" class="cls-1" d="M30.149,21.011H25.981v-4.17a2.33,2.33,0,1,0-4.66,0v4.17H17.152a2.331,2.331,0,0,0,0,4.662H21.32v4.17a2.33,2.33,0,1,0,4.66,0v-4.17h4.169A2.331,2.331,0,0,0,30.149,21.011Z"/>
  </g>
</svg>
