<svg id="logo" xmlns="http://www.w3.org/2000/svg" width="593" height="134" viewBox="0 0 593 134">
  <defs>
    <style>
      .cls-1 {
        fill: #231f20;
      }

      .cls-1, .cls-2 {
        fill-rule: evenodd;
      }

      .cls-2 {
        fill: #4ec8f4;
      }
    </style>
  </defs>
  <path id="plus" class="cls-1" d="M321.235,76.48v40.708H306.141V16.945h17.1q12.567,0,18.981,1.753a25.452,25.452,0,0,1,11.4,6.622q8.615,8.44,8.616,21.295,0,13.764-9.2,21.815T328.231,76.48h-7Zm0-14.024h5.636q20.794,0,20.8-16.036,0-15.517-21.443-15.517h-4.988V62.457Zm74.681-45.511v86.024h29.411v14.219h-44.5V16.945h15.094Zm56.535,0V77.28q0,12.91,4.211,18.878,6.282,8.63,17.686,8.629,11.466,0,17.75-8.629,4.21-5.772,4.21-18.878V16.945h15.1V81.48q0,15.841-9.847,26.1a38.029,38.029,0,0,1-54.352,0q-9.849-10.258-9.847-26.1V16.945h15.094ZM590.41,31.813l-12.244,7.271q-3.435-5.973-6.543-7.791a15.243,15.243,0,0,0-8.357-2.077,15.4,15.4,0,0,0-10.429,3.574,11.085,11.085,0,0,0-4.147,8.835q0,7.343,10.884,11.825l9.976,4.094q12.178,4.939,17.815,12.052T593,87.039q0,13.84-9.2,22.871-9.266,9.1-23,9.1-13.021,0-21.508-7.762-8.357-7.755-10.43-21.779l15.289-3.376q1.035,8.83,3.628,12.206,4.663,6.492,13.6,6.492a15.775,15.775,0,0,0,11.725-4.735,16.4,16.4,0,0,0,4.664-12,16.86,16.86,0,0,0-.809-5.352,13.614,13.614,0,0,0-2.527-4.477A20.176,20.176,0,0,0,570,74.392a43.006,43.006,0,0,0-6.478-3.406l-9.653-4.022q-20.537-8.693-20.536-25.432a24.143,24.143,0,0,1,8.616-18.879Q550.568,15,563.4,15,580.693,15,590.41,31.813Z"/>
  <path id="_" data-name="+" class="cls-1" d="M151.543,60.657h-9.118V51.509a5.1,5.1,0,1,0-10.193,0v9.148h-9.119a5.114,5.114,0,0,0,0,10.227h9.119v9.148a5.1,5.1,0,1,0,10.193,0V70.884h9.118A5.114,5.114,0,0,0,151.543,60.657Z"/>
  <path id="you" class="cls-2" d="M32.653,73.855L0,16.883H17.363L40.234,56.965,63.169,16.883H80.532L47.749,73.855v43.33h-15.1V73.855ZM220.67,16.883V77.253q0,12.918,4.211,18.889,6.283,8.635,17.687,8.635,11.467,0,17.752-8.635,4.212-5.775,4.212-18.889V16.883h15.1V81.455q0,15.851-9.847,26.115a38.02,38.02,0,0,1-54.358,0q-9.849-10.264-9.848-26.115V16.883h15.1ZM84.3,66.579Q84.3,45.4,99.781,30.2A50.9,50.9,0,0,1,136.841,15q21.379,0,36.67,15.331a50.19,50.19,0,0,1,15.355,36.834,49.391,49.391,0,0,1-15.42,36.7A51.539,51.539,0,0,1,136.063,119q-19.374,0-34.792-13.447Q84.3,90.68,84.3,66.579Zm15.225,0.162q0,16.618,11.144,27.325,11.079,10.71,25.591,10.71a35.973,35.973,0,0,0,26.564-10.9A36.938,36.938,0,0,0,173.64,67q0-16.031-10.69-26.872a35.259,35.259,0,0,0-26.3-10.9,35.6,35.6,0,0,0-26.369,10.9Q99.522,50.905,99.522,66.741Z"/>
</svg>
