<svg id="logo" xmlns="http://www.w3.org/2000/svg" width="150" height="133" viewBox="0 0 150 133">
  <defs>
    <style>
      .cls-1 {
        fill: #52c8f4;
      }

      .cls-1, .cls-2, .cls-3 {
        fill-rule: evenodd;
      }

      .cls-2 {
        fill: #191919;
      }

      .cls-3 {
        fill: #fff;
      }
    </style>
  </defs>
  <path id="_200" data-name="200" class="cls-1" d="M75,0c25.338,0,45.878,20.324,45.878,45.4S100.338,90.79,75,90.79,29.122,70.466,29.122,45.4,49.663,0,75,0Z"/>
  <path id="_145" data-name="145" class="cls-2" d="M75.2,12.693a32.922,32.922,0,1,1-33.249,32.92A33.086,33.086,0,0,1,75.2,12.693Z"/>
  <path id="_" data-name="+" class="cls-3" d="M87.882,41.13H79.761V33.092a4.54,4.54,0,0,0-9.079,0V41.13H62.56a4.493,4.493,0,1,0,0,8.985h8.122v8.038a4.54,4.54,0,0,0,9.079,0V50.115h8.122A4.493,4.493,0,1,0,87.882,41.13Z"/>
  <path id="plus" class="cls-2" d="M80.96,121.816v10.13H77.126V107H81.47a19.992,19.992,0,0,1,4.822.436,6.5,6.5,0,0,1,2.9,1.649,7.033,7.033,0,0,1,2.189,5.3,6.782,6.782,0,0,1-2.337,5.429,9.358,9.358,0,0,1-6.3,2H80.96Zm0-3.49h1.432q5.283,0,5.283-3.991,0-3.862-5.447-3.862H80.96v7.853ZM99.932,107v21.409H107.4v3.538H96.1V107h3.835Zm14.362,0v15.016a8.14,8.14,0,0,0,1.07,4.7,5.791,5.791,0,0,0,9,0,8,8,0,0,0,1.07-4.7V107h3.834V123.06a8.894,8.894,0,0,1-2.5,6.5,9.8,9.8,0,0,1-13.808,0,8.894,8.894,0,0,1-2.5-6.5V107h3.834Zm35.048,3.7-3.111,1.81a5.283,5.283,0,0,0-1.662-1.939,4.488,4.488,0,0,0-4.773.372,2.738,2.738,0,0,0-1.053,2.2q0,1.827,2.765,2.943l2.534,1.019a10.823,10.823,0,0,1,4.526,3A6.682,6.682,0,0,1,150,124.443a7.558,7.558,0,0,1-2.337,5.692,8.1,8.1,0,0,1-5.842,2.264,7.878,7.878,0,0,1-5.464-1.932,8.826,8.826,0,0,1-2.65-5.42l3.884-.84a6.39,6.39,0,0,0,.922,3.037,4.217,4.217,0,0,0,7.619-2.55,4.115,4.115,0,0,0-.205-1.331,3.387,3.387,0,0,0-.642-1.114,5.1,5.1,0,0,0-1.127-.953,10.956,10.956,0,0,0-1.646-.848l-2.452-1q-5.217-2.163-5.217-6.329a5.954,5.954,0,0,1,2.189-4.7,8,8,0,0,1,5.447-1.906A7.627,7.627,0,0,1,149.342,110.7Z"/>
  <path id="_2" data-name="+" class="cls-2" d="M38.419,118.293H36.078V116a1.309,1.309,0,0,0-2.617,0v2.3H31.12a1.285,1.285,0,1,0,0,2.57h2.341v2.3a1.309,1.309,0,0,0,2.617,0v-2.3h2.341A1.285,1.285,0,1,0,38.419,118.293Z"/>
  <path id="you" class="cls-1" d="M8.3,121.169L0.007,107H4.417l5.81,9.969L16.053,107h4.41l-8.327,14.17v10.777H8.3V121.169ZM56.06,107v15.016a8.137,8.137,0,0,0,1.07,4.7,5.792,5.792,0,0,0,9,0,8,8,0,0,0,1.07-4.7V107h3.834V123.06a8.9,8.9,0,0,1-2.5,6.5,9.8,9.8,0,0,1-13.808,0,8.9,8.9,0,0,1-2.5-6.5V107H56.06ZM21.42,119.36a12.113,12.113,0,0,1,3.933-9.049,13.072,13.072,0,0,1,9.414-3.78,12.824,12.824,0,0,1,9.315,3.813,12.354,12.354,0,0,1,3.9,9.161,12.16,12.16,0,0,1-3.917,9.129,13.608,13.608,0,0,1-18.333.42A12.159,12.159,0,0,1,21.42,119.36Zm3.867,0.04a8.921,8.921,0,0,0,2.831,6.8,9.5,9.5,0,0,0,13.248-.048,9.38,9.38,0,0,0-6.649-16.079,9.141,9.141,0,0,0-6.7,2.712A8.9,8.9,0,0,0,25.287,119.4Z"/>
</svg>
